# xmcd CD database file
#
# Track frame offsets:
#	150
#	12649
#	25410
#	38122
#	48794
#	62423
#	77876
#	90630
#	99960
#	109882
#	128843
#	141903
#	155164
#	168574
#	183193
#	196944
#	206902
#	217202
#	232403
#	251917
#	286113
#	303115
#
# Disc length: 4069 seconds
#
# Revision: 0
# Processed by: cddbd v1.5.2PL0 Copyright (c) Steve Scherf et al.
# Submitted via: CDex 1.51
#
DISCID=420fe316
DTITLE=Ursula West - Legend in my Time
DYEAR=2005
DGENRE=Country
TTITLE0=Rated X (Loreta Lynn)
TTITLE1=Alegend in my time (Don Gibson)
TTITLE2=Chicken every Sunday (Betty and Charlie Craig)
TTITLE3=Fuzy wuzzy ego (Hank Mills)
TTITLE4=Let me off at the corner (Lou Meridith, Larry Kronberg)
TTITLE5=Did I shave my legs for this (Deana Carter, Rhonda Hart)
TTITLE6=The midnight oil (Joe Allen)
TTITLE7=The phone call (N.Wilson)
TTITLE8=Country sunshine (Dottie West, Billie Davis)
TTITLE9=Too far gone (Billy Sherill)
TTITLE10=Ich schau hinunter ins Tal (Bresser, Auerbach)
TTITLE11=Down on music row (Dolly Parton)
TTITLE12=Stoned at the jukebox (Hank Williams jr.)
TTITLE13=The better part of life (Dolly Parton)
TTITLE14=Reach out your hand (Bill Sherill, Tammy Wynette)
TTITLE15=You're the only world I know (Bob Tubert, Sonny James)
TTITLE16=You ain't woman enough (Loretta Lynn)
TTITLE17=Country Girl (Dottie West, Red Lane)
TTITLE18=Honey I miss you ()Bobby Russel
TTITLE19=Go to hell (Dolly Parton)
TTITLE20=I believe in music (Mac Davis)
TTITLE21=Traditional
EXTD=YEAR: 2005
EXTT0=
EXTT1=
EXTT2=
EXTT3=
EXTT4=
EXTT5=
EXTT6=
EXTT7=
EXTT8=
EXTT9=
EXTT10=
EXTT11=
EXTT12=
EXTT13=
EXTT14=
EXTT15=
EXTT16=
EXTT17=
EXTT18=
EXTT19=
EXTT20=
EXTT21=
PLAYORDER=
